<svg xmlns="http://www.w3.org/2000/svg" viewBox="0 0 32 32" fill="none" role="img" aria-label="My Library">
  <defs>
    <linearGradient id="bg" x1="4" y1="2" x2="28" y2="30" gradientUnits="userSpaceOnUse">
      <stop stop-color="#f9a8d4"/>
      <stop offset="1" stop-color="#e879a9"/>
    </linearGradient>
  </defs>
  <rect width="32" height="32" rx="8" fill="url(#bg)"/>
  <path
    stroke="#fff"
    stroke-width="1.75"
    stroke-linecap="round"
    stroke-linejoin="round"
    d="M16 9.5v15"
  />
  <path
    stroke="#fff"
    stroke-width="1.75"
    stroke-linecap="round"
    stroke-linejoin="round"
    d="M6.5 22.5a1 1 0 0 1-1-1V7.5a1 1 0 0 1 1-1h4.2a3.2 3.2 0 0 1 3.2 3.2 3.2 3.2 0 0 1 3.2-3.2H22a1 1 0 0 1 1 1v14a1 1 0 0 1-1 1h-5.2a2.6 2.6 0 0 0-2.6 2.6 2.6 2.6 0 0 0-2.6-2.6z"
  />
</svg>
